<?xml version="1.0" encoding="iso-8859-1"?>
<!-- Uploaded to: SVG Repo, www.svgrepo.com, Generator: SVG Repo Mixer Tools -->
<svg height="800px" width="800px" version="1.1" id="Layer_1" xmlns="http://www.w3.org/2000/svg" xmlns:xlink="http://www.w3.org/1999/xlink" 
	 viewBox="0 0 512 512" xml:space="preserve">
<g>
	<g>
		<path style="fill:#2C5A7E;" d="M193.071,112.132c0-27.703-22.457-50.16-50.16-50.16s-50.16,22.457-50.16,50.16
			c0,1.572,0.073,3.142,0.221,4.705c8.972-7.378,20.564-11.848,36.107-11.848c23.399,0,41.466,14.473,57.863,31.175
			C190.961,128.789,193.071,120.528,193.071,112.132z"/>
		<path style="fill:#2C5A7E;" d="M369.089,61.972c-27.703,0-50.16,22.457-50.16,50.16c0,8.395,2.105,16.657,6.128,24.031
			c16.397-16.701,34.465-31.175,57.863-31.175c15.542,0,27.137,4.469,36.107,11.852c0.148-1.567,0.221-3.138,0.221-4.709
			C419.249,84.429,396.793,61.972,369.089,61.972z"/>
	</g>
	<path style="fill:#6C686F;" d="M382.921,104.989c-23.399,0-41.466,14.473-57.863,31.175c-8.625,8.785-16.793,18.195-25.026,26.429
		c-11.39-12.212-27.334-19.149-44.031-19.149s-32.644,6.937-44.033,19.149c-8.233-8.233-16.401-17.643-25.026-26.429
		c-16.397-16.701-34.465-31.175-57.863-31.175c-15.542,0-27.135,4.469-36.107,11.848c-16.432,13.519-24.084,36.801-31.138,60.282
		L18.088,322.747c13.98-32.423,46.232-55.117,83.782-55.117c43.755,0,80.307,30.806,89.161,71.909
		c16.395,18.727,40.075,29.474,64.97,29.474c24.89,0,48.576-10.743,64.968-29.479c8.854-41.099,45.41-71.906,89.161-71.906
		c37.551,0,69.801,22.693,83.785,55.117l-43.75-145.628c-7.053-23.482-14.705-46.763-31.137-60.282
		C410.057,109.459,398.464,104.989,382.921,104.989L382.921,104.989z M256.001,261.094c16.114,0,29.183,13.065,29.183,29.185
		c0,16.117-13.069,29.182-29.183,29.182c-16.115,0-29.184-13.065-29.184-29.182C226.817,274.159,239.886,261.094,256.001,261.094z"
		/>
	<path style="fill:#F3DDB9;" d="M285.184,290.279c0-16.119-13.069-29.185-29.183-29.185c-16.115,0-29.184,13.065-29.184,29.185
		c0,16.117,13.069,29.182,29.184,29.182C272.115,319.462,285.184,306.396,285.184,290.279z"/>
	<g>
		<path style="fill:#A9C4DA;" d="M193.071,358.831c0-6.618-0.702-13.073-2.04-19.291c-8.854-41.103-45.407-71.909-89.161-71.909
			c-37.551,0-69.803,22.693-83.782,55.117c-4.774,11.067-7.419,23.266-7.419,36.084c0,50.368,40.832,91.2,91.2,91.2
			S193.071,409.199,193.071,358.831z"/>
		<path style="fill:#A9C4DA;" d="M318.93,358.831c0,50.368,40.832,91.2,91.2,91.2s91.2-40.832,91.2-91.2
			c0-12.817-2.646-25.017-7.416-36.084c-13.983-32.423-46.234-55.117-83.785-55.117c-43.75,0-80.307,30.806-89.156,71.909
			C319.632,345.758,318.93,352.214,318.93,358.831z"/>
	</g>
</g>
<g>
	<path style="fill:#000003;" d="M101.869,299.626c-24.669,0-46.986,15.544-55.534,38.683c-2.04,5.526,0.785,11.663,6.312,13.705
		c1.219,0.45,2.468,0.663,3.697,0.663c4.338,0,8.417-2.667,10.008-6.974c5.466-14.796,19.739-24.739,35.517-24.739
		c5.892,0,10.669-4.779,10.669-10.669C112.538,304.402,107.763,299.626,101.869,299.626z"/>
	<path style="fill:#000003;" d="M256.001,330.13c21.975,0,39.852-17.876,39.852-39.851c0-21.975-17.876-39.854-39.852-39.854
		s-39.853,17.879-39.853,39.854C216.148,312.254,234.026,330.13,256.001,330.13z M256.001,271.763
		c10.208,0,18.514,8.306,18.514,18.517c0,10.208-8.306,18.513-18.514,18.513c-10.21,0-18.516-8.306-18.516-18.513
		C237.486,280.069,245.791,271.763,256.001,271.763z"/>
	<path style="fill:#000003;" d="M504.024,319.313L460.383,174.05c-6.122-20.382-13.618-45.321-30.467-61.822
		c0-0.031,0.002-0.065,0.002-0.096c0-33.54-27.286-60.829-60.829-60.829s-60.829,27.288-60.829,60.829
		c0,7.477,1.404,14.91,4.08,21.869c-2.407,2.547-4.77,5.094-7.095,7.606c-1.94,2.096-3.834,4.141-5.706,6.132
		c-12.363-9.606-27.726-14.965-43.54-14.965c-15.815,0-31.177,5.357-43.542,14.965c-1.869-1.992-3.763-4.036-5.703-6.13
		c-2.326-2.512-4.69-5.063-7.097-7.61c2.676-6.961,4.08-14.394,4.08-21.867c0-33.54-27.286-60.829-60.829-60.829
		c-33.541,0-60.829,27.288-60.829,60.829c0,0.033,0.002,0.065,0.002,0.098c-16.847,16.499-24.344,41.439-30.467,61.82L7.981,319.307
		C2.842,331.465,0,344.82,0,358.827c0,56.171,45.698,101.869,101.869,101.869c54.338,0,98.871-42.76,101.722-96.397
		c15.482,9.939,33.635,15.384,52.41,15.384s36.928-5.445,52.408-15.384c2.853,53.637,47.386,96.397,101.722,96.397
		c56.171,0,101.869-45.698,101.869-101.869C512,344.822,509.158,331.469,504.024,319.313z M369.089,72.641
		c16.668,0,30.948,10.387,36.735,25.021c-6.707-2.144-14.289-3.343-22.903-3.343c-21.185,0-38.217,9.818-53.027,22.596
		c-0.194-1.585-0.296-3.181-0.296-4.784C329.599,90.357,347.315,72.641,369.089,72.641z M142.911,72.641
		c21.775,0,39.491,17.715,39.491,39.491c0,1.6-0.102,3.198-0.296,4.784c-14.809-12.778-31.842-22.596-53.027-22.596
		c-8.614,0-16.195,1.2-22.903,3.343C111.963,83.028,126.243,72.641,142.911,72.641z M72.053,180.189
		c11.353-37.784,22.085-64.531,57.025-64.531c24.565,0,43.606,20.562,62.023,40.447c3.117,3.367,6.312,6.812,9.523,10.148
		l-6.782,44.782c-0.881,5.824,3.126,11.263,8.952,12.146c0.542,0.081,1.08,0.121,1.611,0.121c5.186,0,9.735-3.788,10.535-9.073
		l7.053-46.58c9.152-8.633,21.37-13.538,34.009-13.538c12.636,0,24.855,4.905,34.007,13.538l3.265,21.558
		c0.8,5.284,5.349,9.073,10.535,9.073c0.531,0,1.069-0.039,1.611-0.121c5.826-0.883,9.833-6.322,8.952-12.148l-2.995-19.76
		c3.213-3.336,6.408-6.78,9.525-10.148c18.416-19.885,37.457-40.445,62.02-40.445c34.94,0,45.676,26.744,57.025,64.531
		l28.613,95.243c-16.554-11.631-36.707-18.471-58.43-18.471c-47.734,0-87.898,33.005-98.889,77.388
		c-14.278,15.268-34.256,23.996-55.239,23.996s-40.963-8.727-55.242-23.994c-10.99-44.386-51.153-77.39-98.889-77.39
		c-21.723,0-41.877,6.839-58.43,18.471L72.053,180.189z M101.869,439.359c-44.406,0-80.532-36.125-80.532-80.532
		c0-44.404,36.125-80.527,80.532-80.527s80.532,36.123,80.532,80.527C182.402,403.234,146.275,439.359,101.869,439.359z
		 M410.131,439.359c-44.406,0-80.532-36.125-80.532-80.532c0-44.404,36.125-80.527,80.532-80.527s80.532,36.123,80.532,80.527
		C490.663,403.234,454.537,439.359,410.131,439.359z"/>
	<path style="fill:#000003;" d="M65.252,368.481c-1.55-5.684-7.42-9.033-13.098-7.485c-5.63,1.534-8.972,7.302-7.531,12.934
		c1.19,4.862,5.547,8.133,10.354,8.133c0.809,0,1.631-0.092,2.453-0.286c5.734-1.351,9.291-7.093,7.941-12.827
		C65.333,368.79,65.296,368.635,65.252,368.481z"/>
	<path style="fill:#000003;" d="M410.131,299.626c-24.669,0-46.986,15.544-55.534,38.683c-2.04,5.526,0.785,11.663,6.312,13.705
		c1.219,0.45,2.468,0.663,3.697,0.663c4.338,0,8.417-2.667,10.008-6.974c5.466-14.796,19.739-24.739,35.517-24.739
		c5.892,0,10.669-4.779,10.669-10.669C420.8,304.402,416.023,299.626,410.131,299.626z"/>
	<path style="fill:#000003;" d="M373.514,368.481c-1.55-5.684-7.42-9.033-13.098-7.485c-5.63,1.534-8.972,7.302-7.531,12.934
		c1.19,4.862,5.547,8.133,10.354,8.133c0.809,0,1.631-0.092,2.453-0.286c5.734-1.351,9.291-7.093,7.941-12.827
		C373.595,368.79,373.557,368.635,373.514,368.481z"/>
</g>
</svg>